<svg width="0" height="0" class="hidden">
  <symbol   xmlns="http://www.w3.org/2000/svg" viewBox="0 0 56 56" id="family-room">
    <path d="M53.8726 9.20552C53.5014 7.16993 52.5714 5.27719 51.1829 3.73072C51.1802 3.72773 51.1776 3.72461 51.1749 3.72162C50.4637 2.91856 49.2851 1.81447 47.7097 1.11483L47.6738 1.09893C46.1533 0.369661 44.5216 0 42.8243 0C40.3142 0 37.9399 0.810265 35.9581 2.34341C35.9562 2.3449 35.9473 2.35197 35.9448 2.35374C34.2411 3.68411 33.1168 5.58515 32.9776 5.82733C32.9713 5.83793 32.9652 5.84866 32.9594 5.8594C32.0655 7.49814 31.5931 9.35569 31.5931 11.2313C31.5931 11.6208 31.6135 12.0151 31.654 12.4029C31.6917 12.7654 31.9086 13.0848 32.2313 13.2537C32.4357 13.3607 32.6494 13.4497 32.8689 13.5201C33.7438 16.1982 35.6548 18.3401 38.0842 19.5446C37.0428 20.0765 36.1075 20.7799 35.2985 21.64C34.8871 22.0773 34.9081 22.7654 35.3456 23.1768C35.7829 23.5881 36.471 23.567 36.8824 23.1296C37.2712 22.7162 37.6968 22.349 38.1557 22.0304C38.8139 23.8952 40.5103 25.2613 42.4397 25.2613H42.602C44.5347 25.2613 46.2294 23.7972 46.8487 21.8161C49.1446 23.2554 50.6134 25.8196 50.6134 28.5626V39.8561L40.7245 46.2729C40.2207 46.5997 40.0773 47.273 40.4043 47.7767C40.6125 48.0975 40.9613 48.2722 41.3173 48.2722C41.5202 48.2722 41.7253 48.2155 41.908 48.0969L52.2924 41.3587C52.6013 41.1582 52.7879 40.8149 52.7879 40.4466V28.5626C52.7879 24.7123 50.6384 21.2611 47.2414 19.539C50.4584 17.9335 52.7333 14.6929 52.9562 10.9187C53.263 10.6405 53.5298 10.3137 53.7432 9.94606C53.8733 9.72263 53.9191 9.45993 53.8726 9.20552ZM42.6021 23.087H42.4398C41.1387 23.087 40.0394 21.8258 40.0394 20.3329C40.0394 20.3142 40.0389 20.2958 40.038 20.2773C40.881 20.4989 41.7628 20.6162 42.6669 20.6162C43.4397 20.6162 44.1938 20.5301 44.9192 20.3668C44.8341 21.8368 43.7879 23.087 42.6021 23.087ZM42.6668 18.4417C39.3884 18.4417 36.4815 16.4888 35.2081 13.5614C36.7177 13.1344 37.8725 11.8536 38.116 10.2762C38.7647 10.3595 39.4221 10.4015 40.0816 10.4015C42.2931 10.4015 44.4235 9.93791 46.3315 9.05018C46.8232 10.7388 48.385 11.9763 50.2303 11.9763C50.3649 11.9763 50.4986 11.9695 50.6311 11.9562C49.8645 15.6501 46.5748 18.4417 42.6668 18.4417ZM50.2303 9.802C49.1908 9.802 48.345 8.95654 48.345 7.91714V7.31209C48.345 6.91647 48.1302 6.55211 47.7839 6.36062C47.4375 6.16899 47.0145 6.18082 46.6797 6.39133C44.7665 7.59232 42.485 8.22714 40.0815 8.22714C39.1416 8.22714 38.2079 8.12806 37.3064 7.93263C36.9853 7.86291 36.6496 7.94242 36.3936 8.14885C36.1377 8.35529 35.9888 8.66638 35.9888 8.99513V9.65468C35.9888 10.6939 35.1432 11.5395 34.1038 11.5395C34.0326 11.5395 33.9622 11.5356 33.8926 11.5279C33.8765 11.5254 33.8603 11.5234 33.8441 11.5217C33.8198 11.5185 33.7957 11.5145 33.7717 11.5103C33.7688 11.4171 33.7673 11.3241 33.7673 11.2314C33.7673 9.7229 34.1458 8.22958 34.8621 6.91198C34.8649 6.90668 34.8679 6.90152 34.8702 6.89758C34.8795 6.88086 35.8615 5.17838 37.2813 4.06899C37.2842 4.06668 37.2878 4.06396 37.2885 4.06342C38.8859 2.82764 40.8002 2.17448 42.8243 2.17448C44.1936 2.17448 45.5088 2.47224 46.7335 3.05949C46.7547 3.06968 46.7861 3.08395 46.8271 3.10203C48.0363 3.63912 48.9646 4.50837 49.5341 5.14862C49.5403 5.15596 49.5467 5.16316 49.5532 5.1705C50.5793 6.30897 51.2964 7.68053 51.6426 9.15985C51.287 9.56267 50.7727 9.802 50.2303 9.802ZM33.4068 37.6196C35.8705 36.1699 37.5277 33.4899 37.5277 30.4306C37.5277 29.0539 37.192 27.7538 36.5985 26.6083C36.5772 26.5602 36.5529 26.5144 36.5257 26.4709C35.1142 23.8677 32.3567 22.096 29.1931 22.096C26.0288 22.096 23.2707 23.8683 21.8596 26.4726C21.8333 26.515 21.8095 26.5597 21.7887 26.6065C21.1944 27.7524 20.8586 29.0531 20.8586 30.4306C20.8586 33.4894 22.515 36.1688 24.978 37.6186C21.9292 39.1947 19.998 42.3232 19.998 45.7855V49.751C19.998 50.1227 20.1879 50.4685 20.5014 50.6682L28.6093 55.8298C28.7875 55.9432 28.9903 55.9999 29.1932 55.9999C29.3949 55.9999 29.5966 55.9439 29.7739 55.8318L37.901 50.6971C38.218 50.4969 38.4093 50.1477 38.4075 49.7728L38.3884 45.7804C38.3718 42.3099 36.4426 39.1917 33.4068 37.6196ZM29.1931 24.2704C31.0855 24.2704 32.7811 25.128 33.9121 26.4751C32.447 26.8949 30.8404 27.1138 29.1933 27.1138C27.5458 27.1138 25.9389 26.8949 24.474 26.4751C25.605 25.128 27.3007 24.2704 29.1931 24.2704ZM23.0329 30.4306C23.0329 29.7243 23.1524 29.0452 23.3723 28.4128C25.1663 28.9874 27.1572 29.2883 29.1933 29.2883C31.2289 29.2883 33.2195 28.9874 35.0139 28.4128C35.2338 29.0452 35.3532 29.7243 35.3532 30.4306C35.3532 33.8273 32.5899 36.5908 29.1931 36.5908C25.7964 36.5908 23.0329 33.8273 23.0329 30.4306ZM31.1229 38.5398C30.987 39.5683 30.0849 40.2636 29.2686 40.2636H29.1362C28.2718 40.2636 27.3117 39.5324 27.1874 38.5213C27.8299 38.6806 28.5018 38.7652 29.1929 38.7652C29.857 38.7652 30.5033 38.6871 31.1229 38.5398ZM29.1954 53.6253L22.1723 49.1543V45.7857C22.1723 43.395 23.3803 41.2121 25.3355 39.9256C26.0149 41.4758 27.6164 42.4381 29.1362 42.4381H29.2686C30.9094 42.4381 32.3598 41.3703 32.9863 39.8867C34.9698 41.1656 36.2022 43.3656 36.2138 45.7908L36.2301 49.1808L29.1954 53.6253ZM21.3859 24.4414C21.7028 23.9313 21.5462 23.2609 21.0363 22.944C20.7053 22.7382 20.362 22.5516 20.0097 22.3856C21.3532 21.6987 22.5417 20.7149 23.4852 19.4843C23.8737 19.6191 24.2908 19.6925 24.7246 19.6925C26.8139 19.6925 28.5137 17.9927 28.5137 15.9034V13.2015C28.5137 9.76694 27.2016 6.51406 24.8194 4.04235C22.4439 1.57786 19.2547 0.146234 15.8394 0.0111442C15.8392 0.0111442 15.8388 0.0111442 15.8385 0.0111442C15.5417 -0.000271809 15.2654 -0.00298991 14.9937 0.00366943C11.5936 0.085756 8.38642 1.46193 5.96283 3.87859C3.47808 6.35613 2.10965 9.66718 2.10965 13.2017V15.9036C2.10965 17.9929 3.80941 19.6926 5.89882 19.6926C6.33263 19.6926 6.74958 19.6194 7.138 19.4845C8.17726 20.8401 9.51402 21.8962 11.0279 22.5858C7.67305 24.3501 5.59806 27.7654 5.59806 31.5473V40.4469C5.59806 40.8152 5.78452 41.1585 6.09357 41.359L15.9569 47.7589C16.1397 47.8775 16.3447 47.9342 16.5476 47.9342C16.9036 47.9342 17.2526 47.7594 17.4607 47.4387C17.7875 46.9349 17.6441 46.2616 17.1405 45.9349L7.77254 39.8564V31.5473C7.77254 29.0317 8.9439 26.722 10.9062 25.2316C11.5792 27.1845 13.3074 28.6519 15.2182 28.6519H15.3805C17.4558 28.6519 19.1122 26.7734 19.6955 24.6747C19.7603 24.7125 19.8246 24.7513 19.8883 24.7908C20.3985 25.108 21.0689 24.9513 21.3859 24.4414ZM8.58783 9.25009C7.88493 10.4439 7.51337 11.8103 7.51337 13.2017V15.9036C7.51337 16.4187 7.27091 16.8782 6.89405 17.174C6.8617 17.1951 6.83085 17.2176 6.8015 17.2416C6.54369 17.4162 6.23287 17.5181 5.89868 17.5181C5.00837 17.5181 4.28413 16.7939 4.28413 15.9036V13.2015C4.28413 7.16558 9.01145 2.32329 15.0458 2.17733C15.2714 2.17176 15.5031 2.17421 15.7542 2.18386C21.6896 2.41911 26.3391 7.25854 26.3391 13.2015V15.9034C26.3391 16.7938 25.6147 17.518 24.7244 17.518C24.3902 17.518 24.0792 17.4159 23.8213 17.2413C23.7921 17.2175 23.7613 17.1951 23.7291 17.174C23.3523 16.8782 23.1097 16.4185 23.1097 15.9034V13.2015C23.1097 9.36384 20.2508 6.04749 16.4596 5.48743C16.1615 5.44312 15.8586 5.52494 15.6231 5.71276C15.3876 5.90058 15.2404 6.17756 15.2167 6.4779C15.1571 7.23788 15.0193 7.98726 14.806 8.71449H9.52462C9.13961 8.71449 8.78313 8.91821 8.58783 9.25009ZM15.3805 26.4774H15.2182C13.9891 26.4774 12.7827 24.9853 12.7827 23.4649C12.7827 23.3711 12.7706 23.2789 12.7475 23.1904C13.5732 23.4004 14.4331 23.5098 15.3117 23.5098C16.1435 23.5098 16.9586 23.4116 17.7437 23.2231C17.6698 24.8041 16.4733 26.4774 15.3805 26.4774ZM15.3117 21.3353C12.7776 21.3353 10.4389 20.1816 8.90232 18.2108C9.39456 17.5714 9.68771 16.7709 9.68771 15.9034V13.2015C9.68771 12.4006 9.85813 11.6117 10.184 10.889H15.5907C16.0459 10.889 16.4528 10.6056 16.6106 10.1786C16.8824 9.44335 17.0875 8.68486 17.2239 7.91238C19.4007 8.70471 20.9353 10.813 20.9353 13.2015V15.9034C20.9353 16.7709 21.2285 17.5714 21.7209 18.2108C20.1845 20.1817 17.8458 21.3353 15.3117 21.3353Z" ></path>
  </symbol>
  <symbol xmlns="http://www.w3.org/2000/svg" viewBox="0 0 51 56" id="goal">
    <path d="M49.9937 7.52806L47.6007 5.42089L49.9937 3.31414C50.3658 2.98602 50.4931 2.4746 50.3184 2.01062C50.1428 1.5462 49.7091 1.24627 49.2131 1.24627H39.3104V0.820738C39.3104 0.367431 38.943 0 38.4897 0C38.0364 0 37.6689 0.367431 37.6689 0.820738V11.8898L30.9283 15.55C30.8911 15.2535 30.8022 14.9621 30.6617 14.6878L29.7119 12.8336C29.0599 11.5604 27.4937 11.0558 26.2213 11.7074L25.4869 12.0833C24.8699 12.3995 24.4132 12.9361 24.2005 13.5958C23.9877 14.255 24.0445 14.9579 24.3607 15.5744L25.3104 17.429C25.5322 17.8618 25.8599 18.2045 26.2452 18.4446C25.7411 19.1235 25.5018 19.9583 25.2557 20.8256L25.0789 21.452C24.9554 21.8882 25.2092 22.3419 25.6454 22.465C25.7197 22.4863 25.7949 22.4962 25.8688 22.4962C26.2269 22.4962 26.5559 22.2603 26.6584 21.8985L26.8353 21.2734C27.195 20.0049 27.4159 19.3256 28.1191 18.9436L29.3799 18.2588L29.5355 18.1793C29.5872 18.1528 29.6354 18.1229 29.6846 18.0934L38.6704 13.2138C38.6136 14.3371 38.009 15.3983 37.0135 16.0029L31.1701 19.5533C31.1633 19.5571 31.1564 19.561 31.15 19.5653L29.3312 20.6701C28.9442 20.9055 28.8207 21.4105 29.0561 21.7981C29.2778 22.1633 29.7393 22.2932 30.1157 22.1099L28.7357 26.2816L27.7269 26.6951L24.984 27.8192L25.7744 25.025C25.8975 24.5888 25.6441 24.1351 25.2079 24.0116C24.7713 23.8877 24.3179 24.1419 24.1945 24.5781L22.9456 28.9946C22.9294 29.0514 22.9187 29.1138 22.9162 29.1732L22.5893 35.1768C22.5795 35.4058 22.6282 35.8386 22.5222 36.0621L18.8924 43.6986H16.2545C14.7092 43.6986 13.4522 44.9556 13.4522 46.5005V48.8696C13.0985 48.7077 12.7058 48.6171 12.2918 48.6171H5.59307C4.04815 48.6171 2.79119 49.8736 2.79119 51.419V54.3584H0.820738C0.367431 54.3584 0 54.7258 0 55.1791C0 55.6325 0.367431 55.9999 0.820738 55.9999H49.2122C49.6656 55.9999 50.033 55.6325 50.033 55.1791C50.033 54.7258 49.6656 54.3584 49.2122 54.3584H47.0777V33.2034C47.0777 31.6584 45.8208 30.4015 44.2759 30.4015H39.3104V16.0832C40.2204 14.8498 40.5575 13.2331 40.135 11.6967C40.0688 11.4553 39.8957 11.2571 39.665 11.1592C39.5518 11.1109 39.4305 11.0896 39.3104 11.0943V9.59593H49.2127C49.7091 9.59593 50.1428 9.296 50.318 8.83201C50.4931 8.36802 50.3658 7.85619 49.9937 7.52806ZM25.7629 14.0999C25.8411 13.8577 26.0086 13.6603 26.235 13.5445L26.9694 13.1686C27.1079 13.0976 27.2557 13.0639 27.4018 13.0639C27.7479 13.0639 28.0824 13.2531 28.2507 13.5817L29.2009 15.4364C29.4227 15.8696 29.2791 16.3947 28.8848 16.66L28.6173 16.8048L28.0529 17.0941C27.5859 17.3333 27.0109 17.1479 26.7716 16.6805L25.8214 14.8263C25.7056 14.5998 25.6847 14.3418 25.7629 14.0999ZM24.1137 43.9511C23.8347 43.8238 23.5314 43.7405 23.2127 43.711L24.1137 42.5143V43.9511ZM28.0106 37.3378C28.4054 36.8649 28.5143 36.3124 28.6024 35.8672C28.6246 35.7613 29.0296 33.549 29.0296 33.549C29.0296 33.549 29.4128 33.7878 29.453 33.8049C29.4808 33.8173 29.5004 33.8447 29.5034 33.8767L29.9499 38.4153H27.1993L28.0106 37.3378ZM32.8641 32.8077L32.1711 38.4115H31.5991L31.1372 33.7161C31.0782 33.1145 30.71 32.5894 30.1704 32.3284L29.3449 31.805L29.8948 28.7574C29.8948 28.7574 32.2113 31.5093 32.2651 31.5794C32.7445 32.2028 32.9086 32.4523 32.8641 32.8077ZM23.9988 36.7798C24.1646 36.2808 24.2415 35.7728 24.2287 35.2563L24.5269 29.7807L28.3229 28.2251L27.6329 32.0472C27.6308 32.0575 27.6287 32.0682 27.6274 32.0784L27.0566 35.2388C26.9822 35.566 26.9173 36.0625 26.7131 36.3321L21.167 43.6986H20.7099L23.9988 36.7798ZM4.43267 51.4185C4.43267 50.7789 4.95305 50.2586 5.59307 50.2586H12.2918C12.9319 50.2586 13.4527 50.7789 13.4527 51.4185V54.3584H4.43267V51.4185ZM15.0937 51.4185V46.5005C15.0937 45.8605 15.6145 45.3401 16.2545 45.3401H22.9533C23.5933 45.3401 24.1137 45.8605 24.1137 46.5005V54.3584H15.0941L15.0937 51.4185ZM45.4362 33.2034V54.3584H36.4167V49.4374C36.4167 48.9841 36.0492 48.6167 35.5959 48.6167C35.1422 48.6167 34.7748 48.9841 34.7748 49.4374V54.3584H25.7552V41.2168C25.7552 40.5772 26.2756 40.0568 26.9156 40.0568H33.6144C34.2544 40.0568 34.7748 40.5772 34.7748 41.2168V45.3311C34.7748 45.7845 35.1422 46.1519 35.5955 46.1519C36.0492 46.1519 36.4162 45.7845 36.4162 45.3311V33.2034C36.4162 32.5633 36.9371 32.043 37.5771 32.043H38.4811C38.4837 32.043 38.4867 32.0434 38.4897 32.0434C38.4922 32.0434 38.4952 32.043 38.4978 32.043H44.2754C44.9154 32.043 45.4362 32.5638 45.4362 33.2034ZM37.5771 30.4015C36.0322 30.4015 34.7752 31.6584 34.7752 33.2034V38.6678C34.4813 38.5337 34.1608 38.4487 33.8237 38.4239L34.4932 33.0098C34.6248 31.9545 34.0865 31.2551 33.5661 30.5784C33.511 30.5066 30.3207 26.7186 30.3207 26.7186L32.278 20.8013L37.6689 17.526V30.4015H37.5771ZM39.3104 7.95402V2.88818H47.9933L46.1233 4.53478C45.8686 4.75908 45.7225 5.08208 45.7225 5.42131C45.7225 5.76055 45.8686 6.08354 46.1233 6.30785L47.9933 7.95445L39.3104 7.95402Z" ></path>
  </symbol>
  <symbol  xmlns="http://www.w3.org/2000/svg" viewBox="0 0 56 56" id="network">
    <path d="M28 16.7155C21.8083 16.7155 17.9623 19.8853 17.9623 25.0204C17.9623 25.6039 18.4354 26.077 19.0189 26.077H36.9812C37.5647 26.077 38.0378 25.6039 38.0378 25.0204C38.0378 19.8959 34.1917 16.7155 28 16.7155ZM20.1495 23.9638C20.8468 19.2196 26.2672 18.8287 28 18.8287C29.7328 18.8287 35.1532 19.2196 35.8506 23.9638H20.1495Z" ></path>
    <path d="M28 5.62112C25.2281 5.62112 22.9811 7.86812 22.9811 10.64C22.987 13.4095 25.2305 15.653 28 15.6589C30.7719 15.6589 33.0189 13.4119 33.0189 10.64C33.0189 7.86812 30.7719 5.62112 28 5.62112ZM28 13.5457C26.3953 13.5457 25.0944 12.2447 25.0944 10.64C25.0944 9.03527 26.3953 7.73433 28 7.73433C29.6047 7.73433 30.9057 9.03527 30.9057 10.64C30.9057 12.2447 29.6047 13.5457 28 13.5457Z" ></path>
    <path d="M10.0377 41.0173C3.84604 41.0173 0 44.1871 0 49.3222C0 49.9058 0.473094 50.3788 1.0566 50.3788H19.0189C19.6024 50.3788 20.0755 49.9058 20.0755 49.3222C20.0755 44.1977 16.2294 41.0173 10.0377 41.0173ZM2.18717 48.2656C2.88453 43.5215 8.29434 43.1305 10.0377 43.1305C11.7811 43.1305 17.1909 43.5215 17.8883 48.2656H2.18717Z" ></path>
    <path d="M10.0377 29.923C7.26586 29.923 5.01886 32.17 5.01886 34.9419C5.02467 37.7114 7.26824 39.955 10.0377 39.9608C12.8096 39.9608 15.0566 37.7138 15.0566 34.9419C15.0566 32.17 12.8096 29.923 10.0377 29.923ZM10.0377 37.8476C8.43302 37.8476 7.13207 36.5466 7.13207 34.9419C7.13207 33.3372 8.43302 32.0362 10.0377 32.0362C11.6425 32.0362 12.9434 33.3372 12.9434 34.9419C12.9434 36.5466 11.6425 37.8476 10.0377 37.8476Z" ></path>
    <path d="M45.9623 41.0173C39.7706 41.0173 35.9245 44.1871 35.9245 49.3222C35.9245 49.9058 36.3976 50.3788 36.9811 50.3788H54.9434C55.5269 50.3788 56 49.9058 56 49.3222C56 44.1977 52.154 41.0173 45.9623 41.0173ZM38.1117 48.2656C38.8091 43.5215 44.2189 43.1305 45.9623 43.1305C47.7057 43.1305 53.1155 43.5215 53.8128 48.2656H38.1117Z" ></path>
    <path d="M45.9623 29.923C43.1904 29.923 40.9434 32.17 40.9434 34.9419C40.9492 37.7114 43.1928 39.955 45.9623 39.9608C48.7341 39.9608 50.9811 37.7138 50.9811 34.9419C50.9811 32.17 48.7341 29.923 45.9623 29.923ZM45.9623 37.8476C44.3575 37.8476 43.0566 36.5466 43.0566 34.9419C43.0566 33.3372 44.3575 32.0362 45.9623 32.0362C47.567 32.0362 48.8679 33.3372 48.8679 34.9419C48.8679 36.5466 47.567 37.8476 45.9623 37.8476Z" ></path>
    <path d="M33.4627 39.1894L29.0566 34.7622V28.5283C29.0566 27.9448 28.5835 27.4717 28 27.4717C27.4165 27.4717 26.9434 27.9448 26.9434 28.5283V34.7622L22.5374 39.1683C22.1201 39.5797 22.1154 40.2514 22.5268 40.6687C22.9382 41.0859 23.6099 41.0906 24.0272 40.6792L28 36.6958L31.9728 40.6792C32.4161 41.0588 33.0831 41.0072 33.4627 40.5639C33.8014 40.1684 33.8014 39.585 33.4627 39.1894Z" ></path>
  </symbol>
</svg>